<svg width="83" height="33" viewBox="0 0 83 33" fill="none" xmlns="http://www.w3.org/2000/svg">
<path d="M5.82623 17.5333V32H29.0679H36.8152V14.95L53.2781 17.5333V32H61.5095V19.6L73.6146 21.6667V32H77.9724V17.5333L71.1936 9.78333L57.1517 12.914L46.9834 1L29.0679 6.68333L5.82623 17.5333Z" fill="#454545"/>
<path d="M0.5 32H5.82623M77.9724 32V17.5333L71.1936 9.78333L57.1517 12.914L46.9834 1L29.0679 6.68333L5.82623 17.5333V32M77.9724 32H73.6146M77.9724 32H82.5M5.82623 32H29.0679H36.8152M36.8152 32V14.95L53.2781 17.5333V32M36.8152 32H53.2781M53.2781 32H61.5095M61.5095 32V19.6L73.6146 21.6667V32M61.5095 32H73.6146" stroke="#454545"/>
</svg>
