<svg width="51" height="56" viewBox="0 0 51 56" fill="none" xmlns="http://www.w3.org/2000/svg">
<g filter="url(#filter0_d_842_144)">
<path d="M10.6997 32.5844L15.1725 35.6143L15.1843 41.1589L10.7114 38.129L10.6997 32.5844Z" fill="white"/>
<path d="M10.6865 26.3744L15.1593 29.4044L15.1711 34.949L10.6983 31.919L10.6865 26.3744Z" fill="white"/>
<path d="M10.6733 20.1645L15.1461 23.1944L15.1579 28.739L10.6851 25.7091L10.6733 20.1645Z" fill="white"/>
<path d="M10.6602 13.9546L15.133 16.9845L15.1447 22.5291L10.6719 19.4992L10.6602 13.9546Z" fill="white"/>
<path d="M15.7092 35.9779L20.182 39.0078L20.1938 44.5524L15.721 41.5225L15.7092 35.9779Z" fill="white"/>
<path d="M15.6961 29.768L20.1689 32.7979L20.1806 38.3425L15.7078 35.3126L15.6961 29.768Z" fill="white"/>
<path d="M15.6829 23.558L20.1557 26.588L20.1675 32.1326L15.6946 29.1026L15.6829 23.558Z" fill="white"/>
<path d="M15.6697 17.3481L20.1425 20.378L20.1543 25.9226L15.6815 22.8927L15.6697 17.3481Z" fill="white"/>
<path d="M20.7188 39.3714L25.1916 42.4014L25.2034 47.946L20.7305 44.916L20.7188 39.3714Z" fill="white"/>
<path d="M20.7056 33.1615L25.1784 36.1914L25.1902 41.736L20.7174 38.7061L20.7056 33.1615Z" fill="white"/>
<path d="M20.6924 26.9516L25.1653 29.9815L25.177 35.5261L20.7042 32.4961L20.6924 26.9516Z" fill="white"/>
<path d="M20.6793 20.7416L25.1521 23.7716L25.1638 29.3161L20.691 26.2862L20.6793 20.7416Z" fill="white"/>
<path d="M10.6997 32.5844L15.1725 35.6143L15.1843 41.1589L10.7114 38.129L10.6997 32.5844Z" stroke="#787777" stroke-width="1.5"/>
<path d="M10.6865 26.3744L15.1593 29.4044L15.1711 34.949L10.6983 31.919L10.6865 26.3744Z" stroke="#787777" stroke-width="1.5"/>
<path d="M10.6733 20.1645L15.1461 23.1944L15.1579 28.739L10.6851 25.7091L10.6733 20.1645Z" stroke="#787777" stroke-width="1.5"/>
<path d="M10.6602 13.9546L15.133 16.9845L15.1447 22.5291L10.6719 19.4992L10.6602 13.9546Z" stroke="#787777" stroke-width="1.5"/>
<path d="M15.7092 35.9779L20.182 39.0078L20.1938 44.5524L15.721 41.5225L15.7092 35.9779Z" stroke="#787777" stroke-width="1.5"/>
<path d="M15.6961 29.768L20.1689 32.7979L20.1806 38.3425L15.7078 35.3126L15.6961 29.768Z" stroke="#787777" stroke-width="1.5"/>
<path d="M15.6829 23.558L20.1557 26.588L20.1675 32.1326L15.6946 29.1026L15.6829 23.558Z" stroke="#787777" stroke-width="1.5"/>
<path d="M15.6697 17.3481L20.1425 20.378L20.1543 25.9226L15.6815 22.8927L15.6697 17.3481Z" stroke="#787777" stroke-width="1.5"/>
<path d="M20.7188 39.3714L25.1916 42.4014L25.2034 47.946L20.7305 44.916L20.7188 39.3714Z" stroke="#787777" stroke-width="1.5"/>
<path d="M20.7056 33.1615L25.1784 36.1914L25.1902 41.736L20.7174 38.7061L20.7056 33.1615Z" stroke="#787777" stroke-width="1.5"/>
<path d="M20.6924 26.9516L25.1653 29.9815L25.177 35.5261L20.7042 32.4961L20.6924 26.9516Z" stroke="#787777" stroke-width="1.5"/>
<path d="M20.6793 20.7416L25.1521 23.7716L25.1638 29.3161L20.691 26.2862L20.6793 20.7416Z" stroke="#787777" stroke-width="1.5"/>
<path d="M25.8852 29.3481L30.3435 26.2985L30.3287 20.7539L25.8705 23.8035L25.8852 29.3481Z" fill="white"/>
<path d="M25.9018 35.558L30.36 32.5084L30.3453 26.9638L25.887 30.0135L25.9018 35.558Z" fill="white"/>
<path d="M25.9183 41.768L30.3766 38.7183L30.3618 33.1737L25.9035 36.2234L25.9183 41.768Z" fill="white"/>
<path d="M25.9348 47.9779L30.3931 44.9282L30.3783 39.3837L25.9201 42.4333L25.9348 47.9779Z" fill="white"/>
<path d="M30.8785 25.9325L35.3368 22.8828L35.322 17.3382L30.8637 20.3879L30.8785 25.9325Z" fill="white"/>
<path d="M30.895 32.1424L35.3533 29.0928L35.3385 23.5482L30.8803 26.5978L30.895 32.1424Z" fill="white"/>
<path d="M30.9116 38.3524L35.3698 35.3027L35.3551 29.7581L30.8968 32.8078L30.9116 38.3524Z" fill="white"/>
<path d="M30.9281 44.5623L35.3864 41.5126L35.3716 35.968L30.9133 39.0177L30.9281 44.5623Z" fill="white"/>
<path d="M35.8718 22.5169L40.33 19.4672L40.3153 13.9226L35.857 16.9723L35.8718 22.5169Z" fill="white"/>
<path d="M35.8883 28.7268L40.3466 25.6771L40.3318 20.1326L35.8735 23.1822L35.8883 28.7268Z" fill="white"/>
<path d="M35.9048 34.9367L40.3631 31.8871L40.3483 26.3425L35.8901 29.3921L35.9048 34.9367Z" fill="white"/>
<path d="M35.9214 41.1467L40.3796 38.097L40.3649 32.5524L35.9066 35.6021L35.9214 41.1467Z" fill="white"/>
<path d="M25.8852 29.3481L30.3435 26.2985L30.3287 20.7539L25.8705 23.8035L25.8852 29.3481Z" stroke="#787777" stroke-width="1.5"/>
<path d="M25.9018 35.558L30.36 32.5084L30.3453 26.9638L25.887 30.0135L25.9018 35.558Z" stroke="#787777" stroke-width="1.5"/>
<path d="M25.9183 41.768L30.3766 38.7183L30.3618 33.1737L25.9035 36.2234L25.9183 41.768Z" stroke="#787777" stroke-width="1.5"/>
<path d="M25.9348 47.9779L30.3931 44.9282L30.3783 39.3837L25.9201 42.4333L25.9348 47.9779Z" stroke="#787777" stroke-width="1.5"/>
<path d="M30.8785 25.9325L35.3368 22.8828L35.322 17.3382L30.8637 20.3879L30.8785 25.9325Z" stroke="#787777" stroke-width="1.5"/>
<path d="M30.895 32.1424L35.3533 29.0928L35.3385 23.5482L30.8803 26.5978L30.895 32.1424Z" stroke="#787777" stroke-width="1.5"/>
<path d="M30.9116 38.3524L35.3698 35.3027L35.3551 29.7581L30.8968 32.8078L30.9116 38.3524Z" stroke="#787777" stroke-width="1.5"/>
<path d="M30.9281 44.5623L35.3864 41.5126L35.3716 35.968L30.9133 39.0177L30.9281 44.5623Z" stroke="#787777" stroke-width="1.5"/>
<path d="M35.8718 22.5169L40.33 19.4672L40.3153 13.9226L35.857 16.9723L35.8718 22.5169Z" stroke="#787777" stroke-width="1.5"/>
<path d="M35.8883 28.7268L40.3466 25.6771L40.3318 20.1326L35.8735 23.1822L35.8883 28.7268Z" stroke="#787777" stroke-width="1.5"/>
<path d="M35.9048 34.9367L40.3631 31.8871L40.3483 26.3425L35.8901 29.3921L35.9048 34.9367Z" stroke="#787777" stroke-width="1.5"/>
<path d="M35.9214 41.1467L40.3796 38.097L40.3649 32.5524L35.9066 35.6021L35.9214 41.1467Z" stroke="#787777" stroke-width="1.5"/>
<path d="M15.2421 10.2435L19.8353 13.3008L15.2739 16.3369L10.6808 13.2796L15.2421 10.2435Z" fill="white"/>
<path d="M20.3508 6.84313L24.9439 9.90041L20.3826 12.9365L15.7895 9.87922L20.3508 6.84313Z" fill="white"/>
<path d="M25.4595 3.4427L30.0526 6.49999L25.4913 9.53608L20.8981 6.4788L25.4595 3.4427Z" fill="white"/>
<path d="M20.3864 13.6677L24.9796 16.725L20.4183 19.7611L15.8251 16.7038L20.3864 13.6677Z" fill="white"/>
<path d="M25.4951 10.2673L30.0883 13.3246L25.527 16.3607L20.9338 13.3034L25.4951 10.2673Z" fill="white"/>
<path d="M30.6038 6.86686L35.197 9.92414L30.6357 12.9602L26.0425 9.90295L30.6038 6.86686Z" fill="white"/>
<path d="M25.5308 17.0919L30.124 20.1491L25.5626 23.1852L20.9695 20.128L25.5308 17.0919Z" fill="white"/>
<path d="M30.6395 13.6914L35.2326 16.7487L30.6713 19.7848L26.0781 16.7275L30.6395 13.6914Z" fill="white"/>
<path d="M35.7482 10.291L40.3413 13.3483L35.78 16.3844L31.1868 13.3271L35.7482 10.291Z" fill="white"/>
<path d="M15.2421 10.2435L19.8353 13.3008L15.2739 16.3369L10.6808 13.2796L15.2421 10.2435Z" stroke="#787777" stroke-width="1.5"/>
<path d="M20.3508 6.84313L24.9439 9.90041L20.3826 12.9365L15.7895 9.87922L20.3508 6.84313Z" stroke="#787777" stroke-width="1.5"/>
<path d="M25.4595 3.4427L30.0526 6.49999L25.4913 9.53608L20.8981 6.4788L25.4595 3.4427Z" stroke="#787777" stroke-width="1.5"/>
<path d="M20.3864 13.6677L24.9796 16.725L20.4183 19.7611L15.8251 16.7038L20.3864 13.6677Z" stroke="#787777" stroke-width="1.5"/>
<path d="M25.4951 10.2673L30.0883 13.3246L25.527 16.3607L20.9338 13.3034L25.4951 10.2673Z" stroke="#787777" stroke-width="1.5"/>
<path d="M30.6038 6.86686L35.197 9.92414L30.6357 12.9602L26.0425 9.90295L30.6038 6.86686Z" stroke="#787777" stroke-width="1.5"/>
<path d="M25.5308 17.0919L30.124 20.1491L25.5626 23.1852L20.9695 20.128L25.5308 17.0919Z" stroke="#787777" stroke-width="1.5"/>
<path d="M30.6395 13.6914L35.2326 16.7487L30.6713 19.7848L26.0781 16.7275L30.6395 13.6914Z" stroke="#787777" stroke-width="1.5"/>
<path d="M35.7482 10.291L40.3413 13.3483L35.78 16.3844L31.1868 13.3271L35.7482 10.291Z" stroke="#787777" stroke-width="1.5"/>
</g>
<defs>
<filter id="filter0_d_842_144" x="7.43213" y="0.611557" width="40.158" height="54.5353" filterUnits="userSpaceOnUse" color-interpolation-filters="sRGB">
<feFlood flood-opacity="0" result="BackgroundImageFix"/>
<feColorMatrix in="SourceAlpha" type="matrix" values="0 0 0 0 0 0 0 0 0 0 0 0 0 0 0 0 0 0 127 0" result="hardAlpha"/>
<feOffset dx="2" dy="2"/>
<feGaussianBlur stdDeviation="2"/>
<feComposite in2="hardAlpha" operator="out"/>
<feColorMatrix type="matrix" values="0 0 0 0 0 0 0 0 0 0 0 0 0 0 0 0 0 0 0.25 0"/>
<feBlend mode="normal" in2="BackgroundImageFix" result="effect1_dropShadow_842_144"/>
<feBlend mode="normal" in="SourceGraphic" in2="effect1_dropShadow_842_144" result="shape"/>
</filter>
</defs>
</svg>
